# File produced by Open Asset Import Library (http://www.assimp.sf.net)
# (assimp v5.3.0)

mtllib large_top_plate.mtl

# 102 vertex positions
v -0.0141899502 0.00672079762 -0.172000006
v 0.00580996182 0.00672079762 -0.244560003
v -0.0141899502 0.00672079762 -0.182500005
v -0.00918996334 0.00672079762 -0.166999906
v -0.0191899501 0.00672079762 -0.1875
v 0.0258099996 0.00672079762 -0.172000006
v 0.0258099996 0.00672079762 -0.182500005
v 0.0308099892 0.00672079762 -0.1875
v 0.0208099391 0.00672079762 -0.166999906
v 0.0258099996 0.00672079762 0.172000006
v 0.00580996182 0.00672079762 0.244560093
v 0.0258099996 0.00672079762 0.182500005
v 0.0208099391 0.00672079762 0.166999906
v -0.0191899501 0.00672079762 0.1875
v -0.0141899502 0.00672079762 0.182500005
v 0.0308099892 0.00672079762 0.1875
v -0.0141899502 0.00672079762 0.172000006
v -0.00918996334 0.00672079762 0.166999906
v -0.412499994 0.00672079762 -0.289999992
v -0.252996594 0.00672079762 -0.262026995
v -0.392500013 0.00672079762 -0.310000002
v -0.412499994 0.00672079762 -0.220349193
v -0.411160201 0.00672079762 -0.215349197
v -0.407499999 0.00672079762 -0.211688906
v -0.402500004 0.00672079762 -0.210349202
v -0.377499998 0.00672079762 -0.209009498
v -0.382499993 0.00672079762 -0.210349202
v -0.373839706 0.00672079762 -0.205349207
v -0.372500002 0.00672079762 -0.200349197
v -0.373839706 0.00672079762 -0.0831131265
v -0.377499998 0.00672079762 -0.0794528723
v -0.172499999 0.00672079762 0.147499993
v -0.412499994 0.00672079762 -0.0681130812
v -0.412499994 0.00672079762 0.289999992
v -0.411160201 0.00672079762 -0.0731131434
v -0.372500002 0.00672079762 -0.0881131217
v -0.382499993 0.00672079762 -0.0781131312
v -0.402500004 0.00672079762 -0.0781131312
v -0.392500013 0.00672079762 0.310000002
v -0.407499999 0.00672079762 -0.076773338
v -0.132499903 0.00672079762 0.1875
v 0.292499989 0.00672079762 0.310000002
v 0.0974999592 0.00672079762 0.1875
v 0.107500002 0.00672079762 0.177499995
v 0.412499994 0.00672079762 0.189999893
v 0.107500002 0.00672079762 -0.177499995
v -0.172499999 0.00672079762 -0.147499993
v -0.132499903 0.00672079762 -0.1875
v 0.292499989 0.00672079762 -0.310000002
v 0.0974999592 0.00672079762 -0.1875
v 0.412499994 0.00672079762 -0.189999893
v -0.0141899502 4.23751771e-08 -0.172000006
v -0.0141899502 4.23751771e-08 -0.182500005
v 0.00580996182 4.23751771e-08 -0.244560003
v -0.00918996334 4.23751771e-08 -0.166999906
v -0.0191899501 4.23751771e-08 -0.1875
v 0.0258099996 4.23751771e-08 -0.172000006
v 0.0258099996 4.23751771e-08 -0.182500005
v 0.0308099892 4.23751771e-08 -0.1875
v 0.0208099391 4.23751771e-08 -0.166999906
v 0.0258099996 4.23751771e-08 0.172000006
v 0.0258099996 4.23751771e-08 0.182500005
v 0.00580996182 4.23751771e-08 0.244560093
v 0.0208099391 4.23751771e-08 0.166999906
v -0.0191899501 4.23751771e-08 0.1875
v -0.0141899502 4.23751771e-08 0.182500005
v 0.0308099892 4.23751771e-08 0.1875
v -0.0141899502 4.23751771e-08 0.172000006
v -0.00918996334 4.23751771e-08 0.166999906
v -0.412499994 4.23751771e-08 -0.289999992
v -0.392500013 4.23751771e-08 -0.310000002
v -0.252996594 4.23751771e-08 -0.262026995
v -0.412499994 4.23751771e-08 -0.220349193
v -0.411160201 4.23751771e-08 -0.215349197
v -0.407499999 4.23751771e-08 -0.211688906
v -0.402500004 4.23751771e-08 -0.210349202
v -0.377499998 4.23751771e-08 -0.209009498
v -0.382499993 4.23751771e-08 -0.210349202
v -0.373839706 4.23751771e-08 -0.205349207
v -0.372500002 4.23751771e-08 -0.200349197
v -0.373839706 4.23751771e-08 -0.0831131265
v -0.172499999 4.23751771e-08 0.147499993
v -0.377499998 4.23751771e-08 -0.0794528723
v -0.412499994 4.23751771e-08 -0.0681130812
v -0.412499994 4.23751771e-08 0.289999992
v -0.411160201 4.23751771e-08 -0.0731131434
v -0.372500002 4.23751771e-08 -0.0881131217
v -0.382499993 4.23751771e-08 -0.0781131312
v -0.402500004 4.23751771e-08 -0.0781131312
v -0.392500013 4.23751771e-08 0.310000002
v -0.407499999 4.23751771e-08 -0.076773338
v -0.132499903 4.23751771e-08 0.1875
v 0.292499989 4.23751771e-08 0.310000002
v 0.0974999592 4.23751771e-08 0.1875
v 0.107500002 4.23751771e-08 0.177499995
v 0.412499994 4.23751771e-08 0.189999893
v 0.107500002 4.23751771e-08 -0.177499995
v -0.172499999 4.23751771e-08 -0.147499993
v -0.132499903 4.23751771e-08 -0.1875
v 0.292499989 4.23751771e-08 -0.310000002
v 0.0974999592 4.23751771e-08 -0.1875
v 0.412499994 4.23751771e-08 -0.189999893

# 0 UV coordinates

# 46 vertex normals
vn 0 1.05840003 0
vn 0 -1.05840003 0
vn -1 0 0
vn -0.707106173 0 0.707107425
vn 0.707106709 0 0.707106829
vn 0.707107425 0 0.707106173
vn 0.707105994 0 -0.707107604
vn -0.707107604 0 -0.707106113
vn -0.707107782 0 -0.707105875
vn 0 0 -1
vn -0.965927601 0 -0.258812606
vn -0.258821607 0 0.965925217
vn 1 0 0
vn -0.707107008 0 0.70710659
vn 0 0 1
vn 0.707106829 0 -0.707106829
vn -0.25881809 0 -0.96592617
vn -0.965927601 0 0.258812994
vn 0.707107127 0 -0.707106471
vn 0.707107127 0 0.707106471
vn 0.707106411 0 0.707107306
vn 0.707107425 0 -0.707106173
vn -0.707108498 0 0.707105219
vn -0.25881809 0 0.96592617
vn -0.707107604 0 0.707106113
vn -0.258820295 0 -0.965925574
vn -0.707106829 0 -0.707106709
vn -0.707106829 0 0.707106709
vn -0.707106471 0 -0.707107127
vn -0.707106411 0 0.707107306
vn 0.707106829 0 0.707106829
vn 0.707107723 0 0.707105875
vn 0.707106709 0 -0.707107008
vn -0.707106173 0 -0.707107425
vn -0.965924084 0 -0.258825898
vn 0.707106709 0 -0.707106829
vn -0.258821607 0 -0.965925217
vn -0.965923905 0 0.258826196
vn 0.70710659 0 -0.707107008
vn 0.70710659 0 0.707107008
vn 0.707107723 0 -0.707105875
vn -0.707107425 0 0.707106173
vn -0.707107425 0 -0.707106173
vn -0.258816808 0 -0.965926528
vn -0.707106411 0 -0.707107306
vn -0.707106471 0 0.707107127

# Mesh 'UR5_Top_Plate-mesh' with 204 faces
g UR5_Top_Plate-mesh
usemtl Dark
f  1//1 2//1 3//1
f  1//1 4//1 2//1
f  3//1 2//1 5//1
f  6//1 7//1 2//1
f  7//1 8//1 2//1
f  9//1 2//1 4//1
f  9//1 6//1 2//1
f  10//1 11//1 12//1
f  13//1 11//1 10//1
f  14//1 11//1 15//1
f  12//1 11//1 16//1
f  17//1 11//1 18//1
f  18//1 11//1 13//1
f  15//1 11//1 17//1
f  19//1 20//1 21//1
f  19//1 22//1 20//1
f  23//1 24//1 20//1
f  25//1 20//1 24//1
f  26//1 20//1 27//1
f  25//1 27//1 20//1
f  26//1 28//1 20//1
f  23//1 20//1 22//1
f  28//1 29//1 20//1
f  30//1 31//1 32//1
f  33//1 34//1 32//1
f  35//1 33//1 32//1
f  30//1 32//1 36//1
f  37//1 38//1 32//1
f  39//1 32//1 34//1
f  38//1 40//1 32//1
f  31//1 37//1 32//1
f  35//1 32//1 40//1
f  41//1 32//1 39//1
f  14//1 41//1 11//1
f  11//1 41//1 39//1
f  39//1 42//1 11//1
f  16//1 11//1 42//1
f  16//1 42//1 43//1
f  44//1 43//1 42//1
f  42//1 45//1 44//1
f  44//1 45//1 46//1
f  32//1 47//1 36//1
f  36//1 47//1 29//1
f  47//1 20//1 29//1
f  47//1 48//1 20//1
f  49//1 21//1 20//1
f  2//1 49//1 20//1
f  48//1 5//1 20//1
f  20//1 5//1 2//1
f  50//1 2//1 8//1
f  2//1 50//1 49//1
f  50//1 46//1 49//1
f  49//1 46//1 51//1
f  45//1 51//1 46//1
f  52//2 53//2 54//2
f  52//2 54//2 55//2
f  53//2 56//2 54//2
f  57//2 54//2 58//2
f  58//2 54//2 59//2
f  60//2 55//2 54//2
f  60//2 54//2 57//2
f  61//2 62//2 63//2
f  64//2 61//2 63//2
f  65//2 66//2 63//2
f  62//2 67//2 63//2
f  68//2 69//2 63//2
f  69//2 64//2 63//2
f  66//2 68//2 63//2
f  70//2 71//2 72//2
f  70//2 72//2 73//2
f  74//2 72//2 75//2
f  76//2 75//2 72//2
f  77//2 78//2 72//2
f  76//2 72//2 78//2
f  77//2 72//2 79//2
f  74//2 73//2 72//2
f  79//2 72//2 80//2
f  81//2 82//2 83//2
f  84//2 82//2 85//2
f  86//2 82//2 84//2
f  81//2 87//2 82//2
f  88//2 82//2 89//2
f  90//2 85//2 82//2
f  89//2 82//2 91//2
f  83//2 82//2 88//2
f  86//2 91//2 82//2
f  92//2 90//2 82//2
f  65//2 63//2 92//2
f  63//2 90//2 92//2
f  90//2 63//2 93//2
f  67//2 93//2 63//2
f  67//2 94//2 93//2
f  95//2 93//2 94//2
f  93//2 95//2 96//2
f  95//2 97//2 96//2
f  82//2 87//2 98//2
f  87//2 80//2 98//2
f  98//2 80//2 72//2
f  98//2 72//2 99//2
f  100//2 72//2 71//2
f  54//2 72//2 100//2
f  99//2 72//2 56//2
f  72//2 54//2 56//2
f  101//2 59//2 54//2
f  54//2 100//2 101//2
f  101//2 100//2 97//2
f  100//2 102//2 97//2
f  96//2 97//2 102//2
f  46//3 95//3 44//3
f  34//4 90//4 39//4
f  42//5 96//5 45//5
f  60//6 6//6 9//6
f  16//7 62//7 12//7
f  21//8 70//8 19//8
f  40//9 86//9 35//9
f  84//3 34//3 33//3
f  43//10 67//10 16//10
f  36//11 81//11 30//11
f  24//12 76//12 25//12
f  45//13 102//13 51//13
f  12//13 61//13 10//13
f  77//14 28//14 26//14
f  76//15 27//15 25//15
f  51//16 100//16 49//16
f  83//17 37//17 31//17
f  79//18 29//18 28//18
f  70//3 22//3 19//3
f  86//11 33//11 35//11
f  41//19 82//19 32//19
f  3//3 52//3 1//3
f  88//10 38//10 37//10
f  98//20 48//20 47//20
f  22//18 74//18 23//18
f  58//21 8//21 7//21
f  32//13 98//13 47//13
f  10//22 64//22 13//22
f  81//9 31//9 30//9
f  99//15 5//15 48//15
f  74//23 24//23 23//23
f  27//24 77//24 26//24
f  14//10 92//10 41//10
f  17//3 66//3 15//3
f  39//15 93//15 42//15
f  29//3 87//3 36//3
f  52//25 4//25 1//25
f  18//8 68//8 17//8
f  89//26 40//26 38//26
f  13//10 69//10 18//10
f  4//15 60//15 9//15
f  44//27 94//27 43//27
f  49//10 71//10 21//10
f  50//28 97//28 46//28
f  59//15 50//15 8//15
f  15//29 65//29 14//29
f  5//30 53//30 3//30
f  57//13 7//13 6//13
f  46//3 97//3 95//3
f  34//25 85//25 90//25
f  42//31 93//31 96//31
f  60//32 57//32 6//32
f  16//33 67//33 62//33
f  21//34 71//34 70//34
f  40//9 91//9 86//9
f  84//3 85//3 34//3
f  43//10 94//10 67//10
f  36//35 87//35 81//35
f  24//24 75//24 76//24
f  45//13 96//13 102//13
f  12//13 62//13 61//13
f  77//14 79//14 28//14
f  76//15 78//15 27//15
f  51//36 102//36 100//36
f  83//37 88//37 37//37
f  79//38 80//38 29//38
f  70//3 73//3 22//3
f  86//35 84//35 33//35
f  41//39 92//39 82//39
f  3//3 53//3 52//3
f  88//10 89//10 38//10
f  98//40 99//40 48//40
f  22//38 73//38 74//38
f  58//21 59//21 8//21
f  32//13 82//13 98//13
f  10//41 61//41 64//41
f  81//9 83//9 31//9
f  99//15 56//15 5//15
f  74//23 75//23 24//23
f  27//12 78//12 77//12
f  14//10 65//10 92//10
f  17//3 68//3 66//3
f  39//15 90//15 93//15
f  29//3 80//3 87//3
f  52//42 55//42 4//42
f  18//43 69//43 68//43
f  89//44 91//44 40//44
f  13//10 64//10 69//10
f  4//15 55//15 60//15
f  44//27 95//27 94//27
f  49//10 100//10 71//10
f  50//28 101//28 97//28
f  59//15 101//15 50//15
f  15//45 66//45 65//45
f  5//46 56//46 53//46
f  57//13 58//13 7//13

